<mxfile host="app.diagrams.net" modified="2024-05-15T07:39:59.433Z" agent="Mozilla/5.0 (Macintosh; Intel Mac OS X 10_15_7) AppleWebKit/537.36 (KHTML, like Gecko) Chrome/124.0.0.0 Safari/537.36" etag="-7wjEj6LctJKPv-iD5bD" version="24.4.0" type="github">
  <diagram id="6a731a19-8d31-9384-78a2-239565b7b9f0" name="Page-1">
    <mxGraphModel dx="2532" dy="879" grid="1" gridSize="10" guides="1" tooltips="1" connect="1" arrows="1" fold="1" page="1" pageScale="1" pageWidth="1169" pageHeight="827" background="none" math="0" shadow="0">
      <root>
        <mxCell id="0" />
        <mxCell id="1" parent="0" />
        <mxCell id="EgDpt0oEZfT1bKl2S6yJ-145" value="&lt;b&gt;&lt;i&gt;INPUT&lt;/i&gt;&lt;/b&gt;&lt;div&gt;(string) rtsp streams&lt;/div&gt;" style="strokeWidth=2;html=1;shape=mxgraph.flowchart.terminator;whiteSpace=wrap;" vertex="1" parent="1">
          <mxGeometry x="-40" y="300" width="200" height="120" as="geometry" />
        </mxCell>
        <mxCell id="EgDpt0oEZfT1bKl2S6yJ-147" value="" style="strokeWidth=2;html=1;shape=mxgraph.flowchart.annotation_2;align=left;labelPosition=right;pointerEvents=1;" vertex="1" parent="1">
          <mxGeometry x="160" y="240" width="70" height="240" as="geometry" />
        </mxCell>
        <mxCell id="EgDpt0oEZfT1bKl2S6yJ-148" value="Broadcast Streaming" style="strokeWidth=2;html=1;shape=mxgraph.flowchart.delay;whiteSpace=wrap;verticalAlign=bottom;fontStyle=1;fontSize=15;" vertex="1" parent="1">
          <mxGeometry x="230" y="165" width="320" height="150" as="geometry" />
        </mxCell>
        <mxCell id="EgDpt0oEZfT1bKl2S6yJ-153" value="" style="edgeStyle=orthogonalEdgeStyle;rounded=0;orthogonalLoop=1;jettySize=auto;html=1;" edge="1" parent="1" source="EgDpt0oEZfT1bKl2S6yJ-150" target="EgDpt0oEZfT1bKl2S6yJ-152">
          <mxGeometry relative="1" as="geometry" />
        </mxCell>
        <mxCell id="EgDpt0oEZfT1bKl2S6yJ-150" value="&lt;b&gt;&lt;i&gt;INPUT&lt;/i&gt;&lt;/b&gt;&lt;div&gt;Kafka topic&lt;/div&gt;" style="strokeWidth=2;html=1;shape=mxgraph.flowchart.terminator;whiteSpace=wrap;" vertex="1" parent="1">
          <mxGeometry x="250" y="210" width="100" height="60" as="geometry" />
        </mxCell>
        <mxCell id="EgDpt0oEZfT1bKl2S6yJ-152" value="Broadcast Converter" style="strokeWidth=2;html=1;shape=mxgraph.flowchart.delay;whiteSpace=wrap;" vertex="1" parent="1">
          <mxGeometry x="390" y="210" width="100" height="60" as="geometry" />
        </mxCell>
        <mxCell id="EgDpt0oEZfT1bKl2S6yJ-155" value="&lt;div style=&quot;font-size: 15px;&quot;&gt;&lt;b style=&quot;font-size: 15px;&quot;&gt;HLS Converter&lt;/b&gt;&lt;/div&gt;" style="strokeWidth=2;html=1;shape=mxgraph.flowchart.delay;whiteSpace=wrap;fontSize=15;" vertex="1" parent="1">
          <mxGeometry x="230" y="390" width="320" height="150" as="geometry" />
        </mxCell>
        <mxCell id="EgDpt0oEZfT1bKl2S6yJ-156" value="" style="strokeWidth=2;html=1;shape=mxgraph.flowchart.annotation_2;align=left;labelPosition=right;pointerEvents=1;rotation=-180;" vertex="1" parent="1">
          <mxGeometry x="550" y="240" width="70" height="240" as="geometry" />
        </mxCell>
        <mxCell id="EgDpt0oEZfT1bKl2S6yJ-157" value="&lt;b&gt;&lt;i&gt;OUTPUT&lt;/i&gt;&lt;/b&gt;&lt;br&gt;&lt;div&gt;(string) converted streams&lt;/div&gt;" style="strokeWidth=2;html=1;shape=mxgraph.flowchart.terminator;whiteSpace=wrap;" vertex="1" parent="1">
          <mxGeometry x="620" y="300" width="200" height="120" as="geometry" />
        </mxCell>
      </root>
    </mxGraphModel>
  </diagram>
</mxfile>
